<svg width="44" height="44" viewBox="0 0 44 44" fill="none" xmlns="http://www.w3.org/2000/svg">
<circle cx="22" cy="22" r="22" fill="#FEE500"/>
<path d="M22.5958 13.75C17.3307 13.75 13.0625 17.1692 13.0625 21.3864C13.0625 24.113 14.8468 26.5055 17.5309 27.8566C17.3852 28.3681 16.5927 31.1481 16.5612 31.3663C16.5612 31.3663 16.5423 31.5304 16.6468 31.593C16.7514 31.6555 16.8742 31.6072 16.8742 31.6072C17.1743 31.5646 20.3525 29.2964 20.9025 28.9028C21.4521 28.9818 22.0179 29.0229 22.5958 29.0229C27.8609 29.0229 32.1292 25.6041 32.1292 21.3864C32.1292 17.1692 27.8609 13.75 22.5958 13.75Z" fill="black"/>
</svg>
